<svg width="23" height="28" viewBox="0 0 23 28" fill="none" xmlns="http://www.w3.org/2000/svg">
<path d="M7.05566 4.27777C7.05566 2.74365 8.29932 1.5 9.83344 1.5H12.6112C14.1454 1.5 15.389 2.74365 15.389 4.27777V7.05554H7.05566V4.27777Z" stroke="#FF1F1F" stroke-width="3" stroke-linecap="round" stroke-linejoin="round"/>
<path d="M7.05555 4.27783H4.27778C2.74365 4.27783 1.5 5.52148 1.5 7.0556V23.7222C1.5 25.2564 2.74365 26.5 4.27778 26.5H8.44444M15.3889 4.27783H18.1667C19.7008 4.27783 20.9444 5.52148 20.9444 7.0556V14" stroke="#FF1F1F" stroke-width="3" stroke-linecap="round" stroke-linejoin="round"/>
<path d="M14 19.5554L17.4722 23.0276M17.4722 23.0276L20.9444 26.4998M17.4722 23.0276L20.9444 19.5554M17.4722 23.0276L14 26.4998" stroke="#FF1F1F" stroke-width="3" stroke-linecap="round" stroke-linejoin="round"/>
</svg>
