<svg width="25" height="25" viewBox="0 0 25 25" fill="none" xmlns="http://www.w3.org/2000/svg">
<path fill-rule="evenodd" clip-rule="evenodd" d="M12.4332 1.6882e-07H14.2442C14.7258 1.6882e-07 15.1163 0.390454 15.1163 0.872093C15.1163 1.35373 14.7258 1.74419 14.2442 1.74419H12.5C9.73462 1.74419 7.74832 1.74603 6.23671 1.94927C4.75019 2.14913 3.85401 2.52923 3.19162 3.19163C2.52923 3.85401 2.14913 4.7502 1.94927 6.23672C1.74603 7.74833 1.74418 9.73463 1.74418 12.5C1.74418 15.2653 1.74603 17.2516 1.94927 18.7633C2.14913 20.2498 2.52923 21.1459 3.19162 21.8084C3.85401 22.4708 4.75019 22.8509 6.23671 23.0507C7.74832 23.254 9.73462 23.2558 12.5 23.2558C15.2653 23.2558 17.2516 23.254 18.7632 23.0507C20.2497 22.8509 21.1459 22.4708 21.8083 21.8084C22.4708 21.1459 22.8509 20.2498 23.0507 18.7633C23.2539 17.2516 23.2558 15.2653 23.2558 12.5V10.7558C23.2558 10.2742 23.6463 9.88372 24.1279 9.88372C24.6095 9.88372 25 10.2742 25 10.7558V12.5667C25 15.2509 25 17.3544 24.7794 18.9957C24.5535 20.6756 24.0822 22.0013 23.0417 23.0417C22.0013 24.0822 20.6756 24.5535 18.9957 24.7794C17.3544 25 15.2509 25 12.5667 25H12.4332C9.74909 25 7.64556 25 6.00431 24.7794C4.32438 24.5535 2.99878 24.0822 1.9583 23.0417C0.917825 22.0013 0.4465 20.6756 0.220639 18.9957C-2.31434e-05 17.3544 -1.14591e-05 15.2509 1.6882e-07 12.5667V12.4333C-1.14591e-05 9.74911 -2.31434e-05 7.64557 0.220639 6.00431C0.4465 4.32438 0.917825 2.99878 1.9583 1.9583C2.99878 0.917826 4.32438 0.4465 6.00431 0.22064C7.64556 -2.31434e-05 9.74909 -1.14591e-05 12.4332 1.6882e-07ZM18.0471 1.19293C19.6377 -0.397641 22.2165 -0.397641 23.8071 1.19293C25.3976 2.78349 25.3976 5.3623 23.8071 6.95287L16.0767 14.6833C15.645 15.115 15.3745 15.3855 15.0728 15.6209C14.7173 15.8981 14.3327 16.1358 13.9257 16.3298C13.5802 16.4944 13.2173 16.6153 12.6381 16.8084L9.26076 17.9342C8.63721 18.142 7.94976 17.9798 7.485 17.515C7.02025 17.0502 6.85796 16.3628 7.06581 15.7392L8.19158 12.3619C8.38463 11.7827 8.50556 11.4198 8.67022 11.0743C8.86416 10.6673 9.10186 10.2827 9.37912 9.92723C9.61451 9.62543 9.88499 9.35499 10.3167 8.92326L18.0471 1.19293ZM22.5737 2.42626C21.6643 1.51684 20.1899 1.51684 19.2804 2.42626L18.8425 2.86419C18.8689 2.97565 18.9058 3.10845 18.9572 3.25658C19.1238 3.73688 19.4392 4.36943 20.0349 4.9651C20.6306 5.56078 21.2631 5.87612 21.7433 6.04276C21.8915 6.09415 22.0243 6.13108 22.1358 6.15748L22.5737 5.71955C23.4831 4.81013 23.4831 3.33566 22.5737 2.42626ZM20.7617 7.5315C20.1618 7.27348 19.463 6.85984 18.8015 6.19843C18.1401 5.53703 17.7265 4.83816 17.4685 4.23821L11.5901 10.1166C11.1058 10.6009 10.9158 10.793 10.7544 10.9999C10.5551 11.2555 10.3842 11.5321 10.2448 11.8247C10.1318 12.0616 10.045 12.3173 9.82836 12.9671L9.32616 14.4737L10.5263 15.6738L12.0329 15.1716C12.6827 14.955 12.9384 14.8681 13.1753 14.7552C13.4679 14.6158 13.7445 14.4449 14.0001 14.2456C14.207 14.0842 14.3991 13.8942 14.8834 13.4099L20.7617 7.5315Z" fill="#154BFF"/>
</svg>
