<svg width="14" height="11" viewBox="0 0 14 11" fill="none" xmlns="http://www.w3.org/2000/svg">
<path fill-rule="evenodd" clip-rule="evenodd" d="M1.95157 0C2.24553 0 2.48382 0.238295 2.48382 0.532247C2.48382 0.826199 2.24553 1.06449 1.95157 1.06449C1.46165 1.06449 1.0645 1.46165 1.0645 1.95157C1.0645 2.44149 1.46165 2.83865 1.95157 2.83865C2.44149 2.83865 2.83865 2.44149 2.83865 1.95157C2.83865 1.65762 3.07695 1.41932 3.3709 1.41932C3.66485 1.41932 3.90315 1.65762 3.90315 1.95157C3.90315 3.0294 3.0294 3.90314 1.95157 3.90314C0.87375 3.90314 0 3.0294 0 1.95157C0 0.873748 0.87375 0 1.95157 0ZM6.20955 1.41946C5.9156 1.41946 5.6773 1.65776 5.6773 1.95171C5.6773 2.24566 5.9156 2.48395 6.20955 2.48396L13.3062 2.48396C13.6001 2.48396 13.8384 2.24566 13.8384 1.95171C13.8384 1.65776 13.6001 1.41946 13.3062 1.41946L6.20955 1.41946ZM8.16112 9.04819C8.16112 8.75424 7.92282 8.51595 7.62887 8.51595L0.532245 8.51595C0.238294 8.51595 0 8.75424 0 9.04819C0 9.34215 0.238294 9.58044 0.532245 9.58044H7.62887C7.92282 9.58044 8.16112 9.34214 8.16112 9.04819ZM11.8868 7.09697C11.5929 7.09697 11.3546 7.33526 11.3546 7.62921C11.3546 7.92317 11.5929 8.16146 11.8868 8.16146C12.3768 8.16146 12.7739 8.55862 12.7739 9.04854C12.7739 9.53846 12.3768 9.93562 11.8868 9.93562C11.3969 9.93562 10.9998 9.53846 10.9998 9.04854C10.9998 8.75459 10.7615 8.51629 10.4675 8.51629C10.1736 8.51629 9.93528 8.75459 9.93528 9.04854C9.93528 10.1264 10.809 11.0001 11.8868 11.0001C12.9647 11.0001 13.8384 10.1264 13.8384 9.04854C13.8384 7.97072 12.9647 7.09697 11.8868 7.09697Z" fill="#333333"/>
</svg>
