<svg width="16" height="16" viewBox="0 0 16 16" fill="none" xmlns="http://www.w3.org/2000/svg">
<path d="M8.00009 16C7.96009 15.96 7.96009 15.96 7.96009 15.92C6.72009 14 5.56009 12.04 4.52009 9.99996C4.00009 9.03996 3.56009 8.07997 3.20009 7.07997C3.04009 6.63997 2.92009 6.19997 2.88009 5.75997C2.84009 5.39997 2.88009 5.07997 2.92009 4.71997C3.00009 3.91997 3.20009 3.11997 3.64009 2.43997C4.24009 1.35997 5.16009 0.679966 6.32009 0.319966C7.64009 -0.080034 8.96009 -0.040034 10.2401 0.519966C11.6001 1.07997 12.4801 2.15997 12.8801 3.59997C13.0801 4.23997 13.1201 4.83997 13.1201 5.51997C13.1201 5.99997 13.0001 6.43997 12.8401 6.87997C12.5201 7.87997 12.0401 8.87996 11.5601 9.79996C10.5601 11.8 9.40009 13.68 8.24009 15.56C8.20009 15.72 8.08009 15.84 8.00009 16ZM9.76009 5.27997C9.76009 4.27997 8.96009 3.51997 8.00009 3.51997C7.00009 3.51997 6.24009 4.31997 6.20009 5.27997C6.20009 6.27997 7.00009 7.07997 8.00009 7.07997C9.00009 7.07997 9.76009 6.27997 9.76009 5.27997Z" fill="white"/>
</svg>
