<svg width="90" height="90" viewBox="0 0 90 90" fill="none" xmlns="http://www.w3.org/2000/svg">
<circle cx="45" cy="45" r="45" fill="#FAB72A"/>
<g clip-path="url(#clip0_4_2008)">
<path d="M67 46.3666C66.9954 45.0648 66.283 43.8684 65.1401 43.2448C65.1719 43.2161 65.2076 43.1947 65.2384 43.1646C66.262 42.139 66.5671 40.5975 66.0114 39.2594C65.4561 37.9209 64.1491 37.0492 62.7 37.0499H48.3667C47.9709 37.0499 47.65 36.729 47.65 36.3332V27.0166C47.6475 24.6426 45.724 22.719 43.35 22.7166H41.9167C40.7293 22.7166 39.7667 23.6792 39.7667 24.8666V30.5999C39.7625 34.1605 36.8773 37.0457 33.3167 37.0499H31.1667V34.1832H24V35.6166H29.7333V62.8499H24V64.2832H31.1667V59.3246L31.2297 59.3747C32.8831 60.6939 34.9348 61.4137 37.0498 61.4165H59.8333C60.7841 61.4176 61.696 61.0404 62.3683 60.3681C63.0405 59.6959 63.4177 58.784 63.4167 57.8332C63.4125 57.0273 63.1346 56.247 62.6283 55.6202C64.3317 55.3147 65.5705 53.8307 65.5667 52.0999C65.5639 51.2201 65.2349 50.3726 64.6435 49.7214C65.1348 49.5443 65.5824 49.2633 65.9551 48.898C66.6245 48.2254 67 47.3152 67 46.3666ZM64.9417 47.8846C64.5368 48.2884 63.9885 48.5159 63.4167 48.5166H53.3833C52.9876 48.5166 52.6667 48.8374 52.6667 49.2332C52.6667 49.629 52.9876 49.9499 53.3833 49.9499H61.9833C63.1707 49.9499 64.1333 50.9126 64.1333 52.0999C64.1333 53.2872 63.1707 54.2499 61.9833 54.2499H53.3833C52.9876 54.2499 52.6667 54.5708 52.6667 54.9665C52.6667 55.3623 52.9876 55.6832 53.3833 55.6832H59.8333C61.0207 55.6832 61.9833 56.6459 61.9833 57.8332C61.9833 59.0205 61.0207 59.9832 59.8333 59.9832H37.0498C35.2602 59.9808 33.5245 59.3722 32.1255 58.2559L31.1667 57.4892V38.4832H33.3167C37.6685 38.478 41.1947 34.9517 41.2 30.5999V24.8666C41.2 24.4708 41.5209 24.1499 41.9167 24.1499H43.35C44.9331 24.1499 46.2167 25.4334 46.2167 27.0166V36.3332C46.2167 37.5205 47.1793 38.4832 48.3667 38.4832H62.7C63.8873 38.4832 64.85 39.4459 64.85 40.6332C64.85 41.8205 63.8873 42.7832 62.7 42.7832H53.3833C52.9876 42.7832 52.6667 43.1041 52.6667 43.4999C52.6667 43.8957 52.9876 44.2166 53.3833 44.2166H63.4167C64.2863 44.2155 65.0705 44.7383 65.4043 45.5411C65.7381 46.3438 65.5555 47.2687 64.9417 47.8846Z" fill="#333333"/>
</g>
<defs>
<clipPath id="clip0_4_2008">
<rect width="43" height="43" fill="white" transform="translate(24 22)"/>
</clipPath>
</defs>
</svg>
