<svg width="90" height="90" viewBox="0 0 90 90" fill="none" xmlns="http://www.w3.org/2000/svg">
<circle cx="45" cy="45" r="45" fill="#FAB72A"/>
<g clip-path="url(#clip0_4_2009)">
<path d="M67.8426 52.3769C67.5529 51.4581 66.6962 50.8369 65.733 50.8473H64.7639V27.1777C64.7639 26.7692 64.4328 26.4381 64.0243 26.4381H53.6688V22.7397C53.6688 22.3312 53.3376 22 52.9291 22H24.8215C24.413 22 24.0818 22.3312 24.0818 22.7397V61.2028C24.0818 61.6113 24.413 61.9425 24.8215 61.9425H49.2604L48.8905 63.0831C48.5908 63.9983 48.9155 65.0019 49.6945 65.5683C50.4732 66.1346 51.5282 66.1339 52.3065 65.5668L56.1836 62.7428C56.4455 62.5514 56.8012 62.5514 57.0631 62.7428L60.9475 65.5683C61.7218 66.144 62.7822 66.144 63.5569 65.5683C64.3446 65.0092 64.6726 63.9993 64.363 63.0838L62.8779 58.5081C62.7804 58.2051 62.8902 57.8735 63.1492 57.6886L67.0408 54.8632C67.8267 54.3016 68.1521 53.2917 67.8426 52.3769ZM63.2846 27.9174V50.8473H60.9251C60.8474 50.847 60.7701 50.8343 60.6965 50.8098C60.4736 50.7347 60.2988 50.5602 60.2233 50.3377L58.7364 45.7657C58.437 44.8552 57.5868 44.2397 56.6282 44.2397C55.6697 44.2397 54.8195 44.8552 54.5201 45.7657L53.6688 48.3791V41.2316H59.5862C59.9947 41.2316 60.3259 40.9004 60.3259 40.4919C60.3259 40.0834 59.9947 39.7522 59.5862 39.7522H53.6688V36.7935H59.5862C59.9947 36.7935 60.3259 36.4623 60.3259 36.0538C60.3259 35.6454 59.9947 35.3142 59.5862 35.3142H53.6688V32.3555H59.5862C59.9947 32.3555 60.3259 32.0243 60.3259 31.6158C60.3259 31.2073 59.9947 30.8761 59.5862 30.8761H53.6688V27.9174H63.2846ZM25.5611 60.4631V23.4794H52.1895V50.8473H47.5221C46.5595 50.8448 45.705 51.4639 45.4067 52.3791C45.1087 53.2946 45.4349 54.298 46.2143 54.8632L50.1044 57.6879C50.3652 57.8735 50.4753 58.2065 50.3768 58.511L49.7418 60.4631H25.5611ZM66.1693 53.667L62.2787 56.4924C61.4993 57.0541 61.1725 58.0552 61.4708 58.9683L62.9577 63.5396C63.0592 63.8448 62.9516 64.181 62.6912 64.3706C62.4312 64.5602 62.0783 64.5595 61.8186 64.3692L57.9317 61.5416C57.1512 60.98 56.0988 60.98 55.3183 61.5416L51.4357 64.367C51.1764 64.5577 50.8232 64.5584 50.5628 64.3692C50.3023 64.1796 50.1944 63.8437 50.2958 63.5381L51.7821 58.969C52.0815 58.0545 51.7543 57.0515 50.9734 56.4895L47.0858 53.6677C46.8236 53.4799 46.7134 53.144 46.8131 52.8374C46.9128 52.5308 47.1999 52.3242 47.5221 52.3267H52.33C52.638 52.3292 52.9429 52.2631 53.222 52.1328L53.2361 52.1248L53.2495 52.1205C53.26 52.1158 53.2672 52.1071 53.2777 52.1017C53.8288 51.8456 54.2492 51.3725 54.4388 50.795L55.9258 46.2244C56.0254 45.921 56.309 45.7155 56.6282 45.7155C56.9479 45.7155 57.2314 45.921 57.3311 46.2244L58.8184 50.7986C59.1171 51.7095 59.9665 52.3256 60.9251 52.3267H65.733C66.0551 52.3242 66.3419 52.5308 66.4416 52.837C66.5416 53.1433 66.4318 53.4788 66.17 53.667H66.1693Z" fill="#333333"/>
<path d="M30.7387 29.3968H47.0116C47.42 29.3968 47.7512 29.0656 47.7512 28.6572C47.7512 28.2487 47.42 27.9175 47.0116 27.9175H30.7387C30.3302 27.9175 29.999 28.2487 29.999 28.6572C29.999 29.0656 30.3302 29.3968 30.7387 29.3968Z" fill="#333333"/>
<path d="M30.7387 35.3141H47.0116C47.42 35.3141 47.7512 34.9829 47.7512 34.5744C47.7512 34.1659 47.42 33.8347 47.0116 33.8347H30.7387C30.3302 33.8347 29.999 34.1659 29.999 34.5744C29.999 34.9829 30.3302 35.3141 30.7387 35.3141Z" fill="#333333"/>
<path d="M30.7387 41.2316H47.0116C47.42 41.2316 47.7512 40.9004 47.7512 40.4919C47.7512 40.0834 47.42 39.7522 47.0116 39.7522H30.7387C30.3302 39.7522 29.999 40.0834 29.999 40.4919C29.999 40.9004 30.3302 41.2316 30.7387 41.2316Z" fill="#333333"/>
<path d="M47.7512 46.4094C47.7512 46.0009 47.42 45.6697 47.0116 45.6697H30.7387C30.3302 45.6697 29.999 46.0009 29.999 46.4094C29.999 46.8178 30.3302 47.149 30.7387 47.149H47.0116C47.42 47.149 47.7512 46.8178 47.7512 46.4094Z" fill="#333333"/>
</g>
<defs>
<clipPath id="clip0_4_2009">
<rect width="44" height="44" fill="white" transform="translate(24 22)"/>
</clipPath>
</defs>
</svg>
