<svg width="90" height="90" viewBox="0 0 90 90" fill="none" xmlns="http://www.w3.org/2000/svg">
<circle cx="45" cy="45" r="45" fill="#FAB72A"/>
<g clip-path="url(#clip0_4_2010)">
<path d="M67.4991 53.9714C65.0972 51.5749 61.4633 50.8368 58.3143 52.0614L56.9356 50.6858C57.045 50.6034 57.1504 50.5132 57.25 50.4137L60.6898 46.9814C61.2537 46.4188 61.5642 45.6686 61.5642 44.8687C61.5642 44.0688 61.2537 43.3185 60.6898 42.756H60.6899C60.0648 42.1323 59.2298 41.8431 58.4098 41.8876C58.4303 41.7375 58.4414 41.585 58.4414 41.4308C58.4414 40.5439 58.0967 39.7124 57.471 39.0894C56.8638 38.4837 56.078 38.1625 55.2813 38.1257C55.6613 36.9727 55.3943 35.6466 54.4842 34.7361C53.7401 33.9937 52.7276 33.6795 51.7555 33.7919C51.7696 33.6663 51.7778 33.5393 51.7778 33.411C51.7778 32.5241 51.4338 31.6926 50.8094 31.0695C49.5167 29.7796 47.4133 29.7797 46.1205 31.0695L43.9219 33.2632L43.7518 33.0935C42.9289 32.2724 41.5886 32.2735 40.764 33.0962L40.0344 33.8242L37.908 31.7007C39.1349 28.5574 38.3947 24.9317 35.9925 22.5349C33.9926 20.5393 31.1279 19.6631 28.3309 20.1912C27.9306 20.2665 26.7127 20.4957 26.4627 21.4276C26.2183 22.3391 27.0874 23.0862 27.5052 23.4453C27.5475 23.4816 30.9381 26.8583 30.9381 26.8583C31.8184 27.7367 31.8776 29.1506 31.0813 30.0984C30.1302 30.894 28.7111 30.8352 27.8295 29.9555C27.8295 29.9555 24.4453 26.5725 24.4088 26.5302C24.0488 26.1134 23.2995 25.2465 22.3881 25.4912C21.4563 25.7418 21.2266 26.9564 21.1512 27.3552C20.6219 30.1481 21.5002 33.0072 23.501 35.0034C25.9028 37.3999 29.5367 38.1379 32.6858 36.9134L35.1476 39.3697C34.8471 40.146 34.707 41.0004 34.7584 41.8584C34.8751 43.7842 33.8543 45.673 31.3447 48.1746L28.7307 50.7828C27.8459 50.329 26.7312 50.4705 25.9909 51.2091L22.3298 54.8621C21.8861 55.3047 21.6419 55.8949 21.6419 56.5239C21.6419 57.153 21.8862 57.7431 22.3297 58.1856L32.4397 68.2731C32.8982 68.7306 33.5006 68.9593 34.1029 68.9593C34.7052 68.9593 35.3076 68.7306 35.7662 68.273L39.4273 64.62C39.8709 64.1774 40.1152 63.5873 40.1152 62.9582C40.1152 62.5779 40.0253 62.212 39.8567 61.8842L44.3034 57.4473C45.6215 56.1323 45.8356 56.1679 47.2317 56.4009C47.4667 56.4402 47.733 56.4847 48.0326 56.5274C49.2513 56.7024 50.6663 56.0832 51.4692 55.6544L53.0919 57.2739C52.6636 58.373 52.4647 59.5685 52.5149 60.7614C52.5311 61.1472 52.8489 61.449 53.2314 61.449C53.2416 61.449 53.2519 61.4488 53.2622 61.4484C53.6582 61.4317 53.9658 61.0972 53.9491 60.7011C53.9013 59.564 54.1241 58.4257 54.5935 57.4091C54.7197 57.1358 54.662 56.8128 54.4488 56.6002L42.9636 45.1379C43.4307 44.2577 43.6951 43.3216 43.7242 42.4025C44.5509 43.1132 45.6382 43.6922 46.7013 43.9779C47.5717 44.2119 48.3862 44.25 49.1177 44.0986C49.1176 44.1067 49.1171 44.1148 49.1171 44.1229C49.1177 45.0085 49.4625 45.8392 50.0868 46.4604C50.6741 47.0479 51.4461 47.3868 52.275 47.4248C52.1898 47.705 52.1455 47.9995 52.1455 48.3011C52.1455 49.1009 52.456 49.8512 53.0198 50.4137C53.603 50.9955 54.3687 51.2864 55.1348 51.2863C55.2515 51.2863 55.368 51.2788 55.4841 51.2652L57.642 53.4183C57.8542 53.63 58.1757 53.6876 58.4482 53.5626C61.1564 52.3209 64.3863 52.8933 66.4851 54.9874C68.149 56.6475 68.8792 59.0268 68.4383 61.3524C68.3645 61.742 68.2809 61.946 68.227 62.0457C68.1238 61.9781 67.9545 61.8267 67.6779 61.5062C67.6158 61.4342 64.1845 58.0029 64.1845 58.0029C62.7604 56.5817 60.4562 56.5037 58.9389 57.8254C58.9145 57.8468 58.8916 57.8696 58.8702 57.894C57.5444 59.4091 57.6226 61.7101 59.0481 63.1325L63.0977 67.1626C62.9968 67.2166 62.792 67.2997 62.4033 67.3729C60.0714 67.8126 57.6856 67.0842 56.0224 65.4246C55.4949 64.8959 55.0565 64.2946 54.7197 63.6373C54.5388 63.2845 54.1064 63.1452 53.7535 63.326C53.4007 63.5069 53.2614 63.9394 53.4423 64.2922C53.8472 65.0821 54.3733 65.8042 55.0074 66.4396C56.624 68.0526 58.8052 68.9344 61.0592 68.9343C61.5939 68.9343 62.1328 68.8846 62.669 68.7835C63.0693 68.7082 64.2873 68.479 64.5373 67.547C64.7817 66.6357 63.9125 65.8885 63.4947 65.5294C63.4524 65.493 60.0619 62.1163 60.0619 62.1163C59.1815 61.2379 59.1224 59.824 59.9187 58.8762C60.8698 58.0807 62.2889 58.1395 63.1705 59.0191C63.1705 59.0191 66.5546 62.4022 66.5912 62.4445C66.9512 62.8614 67.701 63.7285 68.6119 63.4834C69.5434 63.2329 69.7731 62.0182 69.8485 61.6195C70.3781 58.8268 69.4997 55.9677 67.4991 53.9714ZM53.4695 35.7519C54.1884 36.4709 54.1996 37.6476 53.4958 38.3776L51.1886 40.6797C50.7925 40.1058 48.6131 37.9441 48.6131 37.9441L50.8094 35.7526C51.5431 35.0205 52.7368 35.0207 53.4695 35.7519ZM47.1346 32.0859C47.8682 31.3539 49.0622 31.3541 49.7954 32.0859C50.1482 32.4378 50.3424 32.9085 50.3424 33.4112C50.3424 33.9139 50.1482 34.3845 49.7954 34.7364L47.5968 36.9302L44.9382 34.2775L47.1346 32.0859ZM33.358 35.5564C33.1459 35.3447 32.8245 35.2872 32.5519 35.4121C29.8434 36.6537 26.6136 36.0813 24.515 33.9873C22.8511 32.3272 22.1209 29.9479 22.5618 27.6223C22.6355 27.2327 22.7192 27.0287 22.7731 26.9289C22.8762 26.9966 23.0455 27.148 23.3222 27.4685C23.3843 27.5405 26.8155 30.9718 26.8155 30.9718C28.2398 32.393 30.5439 32.471 32.0611 31.1492C32.0855 31.128 32.1084 31.105 32.1299 31.0807C33.4557 29.5656 33.3775 27.2646 31.9519 25.8422C31.9519 25.8422 27.9708 21.9151 27.9024 21.812C28.0033 21.7581 28.2081 21.675 28.5968 21.6018C30.9283 21.1618 33.3143 21.8904 34.9788 23.5512C37.0766 25.6444 37.6503 28.8653 36.4064 31.5663C36.2807 31.8394 36.3385 32.1619 36.5512 32.3744L39.0184 34.8384L36.3439 37.5069C36.1721 37.6784 36.0142 37.8644 35.8679 38.0605L33.358 35.5564ZM50.0876 41.7782C49.9018 41.9637 49.7414 42.1678 49.6067 42.3858C48.0778 43.3332 45.6603 42.2897 44.4573 41.1308L44.3081 40.9822C43.2084 39.8863 42.6235 39.3028 42.5695 39.2475C42.5685 39.2465 42.5676 39.2457 42.5666 39.2448C42.5639 39.2421 42.5615 39.2392 42.5588 39.2365C42.5549 39.2327 42.5511 39.2299 42.5473 39.2265C42.2728 38.9637 41.8379 38.9591 41.5586 39.2231C41.2706 39.4954 41.2579 39.9497 41.5303 40.2378C41.5329 40.2404 41.5372 40.2449 41.5447 40.2526C42.0346 40.7414 42.2936 41.4262 42.2936 42.2327C42.2936 43.5015 41.6452 44.9059 40.5591 45.9895C40.2785 46.2695 40.2781 46.7239 40.558 47.0045C40.6983 47.145 40.8822 47.2154 41.0661 47.2154C41.2496 47.2154 41.4331 47.1455 41.5732 47.0057C41.7811 46.7982 41.9739 46.5811 42.1543 46.3581L50.3998 54.5871C49.5639 54.9794 48.7549 55.181 48.236 55.1063C47.9524 55.0658 47.695 55.0229 47.4679 54.985C45.8047 54.7074 45.0594 54.665 43.2894 56.4311L38.9203 60.7905L35.3101 57.1885C35.0295 56.9084 34.575 56.9089 34.2951 57.1896C34.0151 57.4702 34.0156 57.9247 34.2963 58.2046L38.4119 62.311C38.412 62.3111 38.4122 62.3113 38.4123 62.3115L38.4128 62.312L38.4135 62.3127C38.5852 62.484 38.6798 62.7133 38.6798 62.9583C38.6798 63.2033 38.5852 63.4326 38.4134 63.6039L34.7521 67.257C34.394 67.6142 33.8115 67.6141 33.4536 67.257L23.3436 57.1696C23.1719 56.9982 23.0774 56.7689 23.0774 56.524C23.0774 56.2791 23.1719 56.0497 23.3437 55.8784L27.0048 52.2254C27.3629 51.8682 27.9455 51.8683 28.3034 52.2254L31.9236 55.8376C32.2043 56.1175 32.6587 56.1171 32.9387 55.8364C33.2187 55.5558 33.2182 55.1013 32.9376 54.8214L29.8264 51.7173L32.3584 49.1909C35.189 46.3693 36.3353 44.1505 36.1912 41.7721C36.1185 40.5585 36.5656 39.3134 37.3576 38.5229L41.7779 34.1126C42.0387 33.8521 42.4784 33.851 42.7377 34.1098L43.4137 34.7842L48.0915 39.4517C48.2177 39.5776 48.3437 39.7022 48.4679 39.8251C49.0624 40.4132 49.9194 41.2611 50.1524 41.7132L50.0876 41.7782ZM52.4321 45.9933C51.9275 45.9933 51.4553 45.7988 51.1009 45.4442C50.7477 45.0928 50.553 44.6232 50.5526 44.122C50.5523 43.6195 50.7473 43.148 51.1014 42.7945L53.7963 40.1058C54.163 39.7398 54.6448 39.5569 55.1266 39.5569C55.6084 39.5569 56.0903 39.7398 56.457 40.1058C56.4573 40.106 56.4575 40.1063 56.4578 40.1065C56.8112 40.4583 57.006 40.9286 57.006 41.431C57.006 41.9331 56.8115 42.4033 56.4577 42.7557C56.4574 42.756 56.4571 42.7562 56.4569 42.7565L53.7617 45.4457C53.4088 45.7988 52.9365 45.9933 52.4321 45.9933ZM54.0338 49.3977C53.7418 49.1065 53.5811 48.7171 53.5811 48.3013C53.5811 47.8854 53.7419 47.496 54.034 47.2046L57.4712 43.7724C57.7751 43.4692 58.1744 43.3176 58.5736 43.3176C58.9729 43.3176 59.3721 43.4692 59.6761 43.7724H59.6762C59.9681 44.0637 60.1287 44.4531 60.1287 44.8689C60.1287 45.2847 59.968 45.6741 59.6761 45.9653L56.2362 49.3977C55.6288 50.0035 54.6407 50.0034 54.0338 49.3977Z" fill="#333333"/>
</g>
<defs>
<clipPath id="clip0_4_2010">
<rect width="49" height="49" fill="white" transform="translate(21 20)"/>
</clipPath>
</defs>
</svg>
