<svg width="35" height="35" viewBox="0 0 35 35" fill="none" xmlns="http://www.w3.org/2000/svg">
<g clip-path="url(#clip0_52_379)">
<path d="M17.5 35C7.9 35 0 27.1 0 17.5C0 7.9 7.9 0 17.5 0C27.1 0 35 7.9 35 17.5C35 27.1 27.1 35 17.5 35ZM17.5 1C8.4 1 1 8.4 1 17.5C1 26.6 8.4 34 17.5 34C26.6 34 34 26.6 34 17.5C34 8.4 26.6 1 17.5 1Z" fill="#D9D9D9"/>
<path d="M-9.76548e-05 17.2C1.6999 17.1 3.4999 17.1 5.1999 17C6.9999 16.9 8.8999 16.6 10.5999 16C13.4999 14.9 15.2999 12.9 16.1999 9.9C16.6999 8 16.8999 6.1 16.9999 4.2C17.0999 2.8 17.0999 1.4 17.0999 0C17.3999 0 17.7999 0 18.0999 0C18.0999 1.5 18.1999 2.9 18.1999 4.4C18.2999 6.2 18.4999 7.9 18.8999 9.7C19.7999 13.1 21.8999 15.3 25.2999 16.2C26.7999 16.6 28.2999 16.8 29.8999 16.9C31.4999 17 33.1999 17 34.7999 17.1C34.7999 17.4 34.7999 17.8 34.7999 18.1C33.4999 18.1 32.0999 18.2 30.7999 18.2C28.8999 18.3 27.0999 18.5 25.1999 19C22.0999 19.9 19.9999 21.9 18.9999 25C18.4999 26.6 18.2999 28.2 18.1999 29.9C18.0999 31.6 18.0999 33.2 17.9999 34.9C17.6999 34.9 17.2999 34.9 16.9999 34.9C16.9999 33.6 16.8999 32.3 16.8999 31C16.7999 29.2 16.5999 27.4 16.1999 25.6C15.4999 23.1 14.1999 21.1 11.7999 19.8C10.1999 18.9 8.3999 18.5 6.5999 18.4C4.3999 18.2 2.0999 18.2 -0.100098 18C-9.76548e-05 17.8 -9.76548e-05 17.5 -9.76548e-05 17.2Z" fill="#D9D9D9"/>
</g>
</svg>
