<svg width="35" height="35" viewBox="0 0 35 35" fill="none" xmlns="http://www.w3.org/2000/svg">
<path d="M23.8999 11.2001L8.3999 17.2001C7.8999 17.4001 7.8999 18.1001 8.3999 18.3001L12.2999 19.5001L13.7999 24.2001C13.9999 24.7001 14.5999 24.8001 14.8999 24.5001L16.8999 22.4001L20.8999 25.3001C21.3999 25.7001 22.0999 25.4001 22.1999 24.8001L24.9999 12.1001C25.0999 11.5001 24.4999 11.0001 23.8999 11.2001ZM21.8999 14.0001L14.6999 20.4001C14.5999 20.5001 14.5999 20.6001 14.5999 20.6001L14.2999 23.1001C14.2999 23.2001 14.1999 23.2001 14.1999 23.1001L13.0999 19.4001C12.9999 19.2001 13.0999 19.0001 13.2999 19.0001L21.7999 13.7001C21.8999 13.6001 22.0999 13.9001 21.8999 14.0001Z" fill="#D9D9D9"/>
<path d="M17.5 35C7.9 35 0 27.1 0 17.5C0 7.9 7.9 0 17.5 0C27.1 0 35 7.9 35 17.5C35 27.1 27.1 35 17.5 35ZM17.5 1C8.4 1 1 8.4 1 17.5C1 26.6 8.4 34 17.5 34C26.6 34 34 26.6 34 17.5C34 8.4 26.6 1 17.5 1Z" fill="#D9D9D9"/>
</svg>
