<svg width="35" height="35" viewBox="0 0 35 35" fill="none" xmlns="http://www.w3.org/2000/svg">
<g clip-path="url(#clip0_52_384)">
<path d="M17.5 35C7.9 35 0 27.1 0 17.5C0 7.9 7.9 0 17.5 0C27.1 0 35 7.9 35 17.5C35 27.1 27.1 35 17.5 35ZM17.5 1C8.4 1 1 8.4 1 17.5C1 26.6 8.4 34 17.5 34C26.6 34 34 26.6 34 17.5C34 8.4 26.6 1 17.5 1Z" fill="#D9D9D9"/>
<path d="M21.7001 20.8C21.2001 20.3 20.5001 20.3 20.0001 20.8C19.6001 21.2 19.2001 21.6 18.8001 22C18.7001 22.1 18.6001 22.1 18.5001 22.1C18.3001 22 18.0001 21.9 17.7001 21.7C16.5001 21 15.6001 20 14.7001 19C14.3001 18.5 13.9001 17.9 13.7001 17.3C13.6001 17.2 13.6001 17.1 13.8001 17C14.2001 16.6 14.6001 16.2 15.0001 15.8C15.5001 15.3 15.5001 14.6 15.0001 14C14.7001 13.7 14.4001 13.4 14.0001 13C13.7001 12.7 13.3001 12.3 13.0001 12C12.5001 11.5 11.8001 11.5 11.3001 12C10.9001 12.4 10.5001 12.8 10.1001 13.2C9.70013 13.6 9.50013 14 9.50013 14.5C9.40013 15.3 9.60013 16.1 9.90013 16.9C10.5001 18.5 11.4001 19.9 12.5001 21.2C14.0001 23 15.8001 24.3 17.8001 25.3C18.8001 25.7 19.7001 26.1 20.8001 26.2C21.5001 26.3 22.1001 26.1 22.7001 25.5C23.1001 25.1 23.4001 24.8 23.8001 24.4C24.3001 23.9 24.3001 23.2 23.8001 22.6C22.9001 22.1 22.2001 21.5 21.7001 20.8Z" fill="#D9D9D9"/>
<path d="M20.9999 18.1L22.2999 17.9C22.0999 16.8 21.5999 15.8 20.6999 14.9C19.7999 14 18.7999 13.5 17.4999 13.3L17.3999 14.6C18.3999 14.7 19.1999 15.1 19.7999 15.8C20.3999 16.4 20.7999 17.2 20.9999 18.1Z" fill="#D9D9D9"/>
<path d="M22.9 12.7001C21.5 11.3001 19.6 10.3001 17.6 10.1001L17.5 11.4001C19.2 11.6001 20.8 12.4001 22 13.7001C23.2 14.9001 23.9 16.4001 24.2 18.0001L25.5 17.8001C25.2 15.8001 24.3 14.1001 22.9 12.7001Z" fill="#D9D9D9"/>
</g>
</svg>
