<svg width="35" height="35" viewBox="0 0 35 35" fill="none" xmlns="http://www.w3.org/2000/svg">
<path d="M16.9002 24.1H18.1002C18.1002 24.1 18.5002 24.1 18.6002 23.9C18.7002 23.7 18.8002 23.4 18.8002 23.4C18.8002 23.4 18.8002 21.8 19.5002 21.6C20.2002 21.4 21.2002 23.1 22.1002 23.8C22.8002 24.3 23.4002 24.2 23.4002 24.2H26.0002C26.0002 24.2 27.4002 24.1 26.7002 23C26.7002 22.9 26.3002 22.2 24.7002 20.7C23.0002 19.2 23.2002 19.4 25.3002 16.7C26.5002 15.1 27.0002 14.1 26.8002 13.7C26.7002 13.3 25.7002 13.4 25.7002 13.4H22.7002C22.7002 13.4 22.5002 13.4 22.3002 13.5C22.1002 13.6 22.0002 13.8 22.0002 13.8C22.0002 13.8 21.8002 15 21.2002 16C19.9002 18.2 19.3002 18.4 19.1002 18.2C18.6002 17.9 18.7002 16.9 18.7002 16.2C18.7002 14 19.0002 13.1 18.0002 12.8C17.7002 12.7 17.4002 12.7 16.6002 12.7C15.5002 12.7 14.6002 12.7 14.1002 13C13.7002 13.2 13.5002 13.5 13.7002 13.6C13.9002 13.6 14.4002 13.7 14.6002 14C14.9002 14.4 14.9002 15.4 14.9002 15.4C14.9002 15.4 15.1002 18 14.5002 18.3C14.1002 18.5 13.5002 18.1 12.3002 16C11.7002 14.9 11.2002 13.8 11.2002 13.8C11.2002 13.8 11.1002 13.6 10.9002 13.5C10.7002 13.4 10.5002 13.3 10.5002 13.3H7.80021C7.80021 13.3 7.40021 13.3 7.20021 13.5C7.10021 13.7 7.20021 14 7.20021 14C7.20021 14 9.40021 19.2 11.9002 21.8C14.3002 24.2 16.9002 24.1 16.9002 24.1Z" fill="#D9D9D9"/>
<path d="M17.5 35C7.9 35 0 27.1 0 17.5C0 7.9 7.9 0 17.5 0C27.1 0 35 7.9 35 17.5C35 27.1 27.1 35 17.5 35ZM17.5 1C8.4 1 1 8.4 1 17.5C1 26.6 8.4 34 17.5 34C26.6 34 34 26.6 34 17.5C34 8.4 26.6 1 17.5 1Z" fill="#D9D9D9"/>
</svg>
