<svg width="35" height="35" viewBox="0 0 35 35" fill="none" xmlns="http://www.w3.org/2000/svg">
<g clip-path="url(#clip0_52_391)">
<path d="M17.5 35C7.9 35 0 27.1 0 17.5C0 7.9 7.9 0 17.5 0C27.1 0 35 7.9 35 17.5C35 27.1 27.1 35 17.5 35ZM17.5 1C8.4 1 1 8.4 1 17.5C1 26.6 8.4 34 17.5 34C26.6 34 34 26.6 34 17.5C34 8.4 26.6 1 17.5 1Z" fill="#D9D9D9"/>
<path d="M22.3002 19.8C21.8002 19.3 21.1002 19.3 20.6002 19.8C20.2002 20.2 19.8002 20.6 19.4002 21C19.3002 21.1 19.2002 21.1 19.1002 21.1C18.9002 21 18.6002 20.9 18.3002 20.7C17.1002 20 16.2002 19 15.3002 18C14.9002 17.5 14.5002 16.9 14.3002 16.3C14.2002 16.2 14.2002 16.1 14.4002 16C14.8002 15.6 15.2002 15.2 15.6002 14.8C16.1002 14.3 16.1002 13.6 15.6002 13C15.3002 12.7 15.0002 12.4 14.6002 12C14.3002 11.7 13.9002 11.3 13.6002 11C13.1002 10.5 12.4002 10.5 11.9002 11C11.5002 11.4 11.1002 11.8 10.7002 12.2C10.3002 12.6 10.1002 13 10.1002 13.5C10.0002 14.3 10.2002 15.1 10.5002 15.9C11.1002 17.5 12.0002 18.9 13.1002 20.2C14.6002 22 16.4002 23.3 18.4002 24.3C19.4002 24.7 20.3002 25.1 21.4002 25.2C22.1002 25.3 22.7002 25.1 23.3002 24.5C23.7002 24.1 24.0002 23.8 24.4002 23.4C24.9002 22.9 24.9002 22.2 24.4002 21.6C23.6002 21.1 22.9002 20.5 22.3002 19.8Z" fill="#D9D9D9"/>
</g>
</svg>
