<svg width="35" height="35" viewBox="0 0 35 35" fill="none" xmlns="http://www.w3.org/2000/svg">
<g clip-path="url(#clip0_52_395)">
<path d="M17.5 35C7.9 35 0 27.1 0 17.5C0 7.9 7.9 0 17.5 0C27.1 0 35 7.9 35 17.5C35 27.1 27.1 35 17.5 35ZM17.5 1C8.4 1 1 8.4 1 17.5C1 26.6 8.4 34 17.5 34C26.6 34 34 26.6 34 17.5C34 8.4 26.6 1 17.5 1Z" fill="#D9D9D9"/>
<path fill-rule="evenodd" clip-rule="evenodd" d="M25.5002 13.5C25.3002 12.6 24.6002 12 23.7002 11.9C21.7002 11.7 19.6002 11.7 17.5002 11.7C15.4002 11.7 13.4002 11.7 11.3002 11.9C10.4002 12 9.7002 12.6 9.5002 13.5C9.2002 14.7 9.2002 16.1 9.2002 17.4C9.2002 18.7 9.2002 20.1 9.5002 21.3C9.7002 22.2 10.4002 22.8 11.3002 22.9C13.3002 23.1 15.4002 23.1 17.5002 23.1C19.6002 23.1 21.6002 23.1 23.7002 22.9C24.6002 22.8 25.3002 22.2 25.5002 21.3C25.8002 20.1 25.8002 18.7 25.8002 17.4C25.8002 16.1 25.8002 14.8 25.5002 13.5ZM15.4002 20V14.5C17.1002 15.4 18.9002 16.3 20.6002 17.2C18.9002 18.2 17.1002 19.1 15.4002 20Z" fill="#D9D9D9"/>
</g>
</svg>
