<svg width="296" height="37" viewBox="0 0 296 37" fill="none" xmlns="http://www.w3.org/2000/svg">
<path fill-rule="evenodd" clip-rule="evenodd" d="M53.0886 10.2307H51.0269L51.3214 8.39062H58.9791L58.611 10.2307H56.5493L54.2667 25.1719H50.806L53.0886 10.2307ZM43.8846 18.9157L44.5473 10.5251H44.4L42.5592 18.9157H43.8846ZM42.1174 8.39062H47.5662L46.8299 25.1719H43.4428L43.7373 20.6821H42.1174L41.0866 25.1719H37.6995L42.1174 8.39062ZM31.7354 8.39062L29.1582 25.1719H32.6189L34.9015 10.2307H38.0677L38.3622 8.39062H31.7354ZM23.7095 18.9157L24.3722 10.5251H24.2249L22.3841 18.9157H23.7095ZM21.9423 8.39062H27.4647L26.7284 25.1719H23.2677L23.5622 20.6821H21.9423L20.9115 25.1719H17.5244L21.9423 8.39062Z" fill="white"/>
<path fill-rule="evenodd" clip-rule="evenodd" d="M18.85 12.8067C18.9236 12.5859 18.9972 12.3651 18.9972 12.1443C18.3345 12.1443 17.7455 12.1443 17.0828 12.1443C16.4201 12.7331 15.7574 13.3955 15.0947 13.9843C15.5365 13.9843 15.9783 13.9843 16.4937 13.9843C16.8619 13.7635 16.7146 13.3955 16.9355 12.9539C17.1564 12.7331 17.4509 12.5859 17.7455 12.5859C17.8927 12.5859 18.4082 12.7331 18.5554 12.8803H18.85V12.8067Z" fill="#E20613"/>
<path fill-rule="evenodd" clip-rule="evenodd" d="M15.4628 16.7075H17.3772C17.4509 16.7075 17.4509 16.7811 17.4509 16.7811V17.0755C17.4509 17.1491 17.3772 17.1491 17.3772 17.1491H15.4628C15.3892 17.1491 15.3892 17.0755 15.3892 17.0755V16.7811C15.3892 16.7075 15.3892 16.7075 15.4628 16.7075Z" fill="#E20613"/>
<path fill-rule="evenodd" clip-rule="evenodd" d="M9.64577 20.7559H6.55323L10.1612 15.1621L9.64577 20.7559ZM5.96418 8.31714L0 30.9129L4.71244 23.8471H9.42488L9.27761 25.172H15.61L16.9353 20.167H16.3463L16.199 20.7559H13.5483L13.4746 20.3142H13.0328C12.5174 18.8422 11.9284 15.8981 12.2965 15.6037L14.1373 14.1317L13.99 13.7637C13.9164 13.7637 13.7692 13.8373 13.6955 13.9109C13.2537 13.9109 12.9592 13.9109 12.5174 13.9109C12.2965 13.6901 12.2229 13.4693 12.5174 13.2485C13.0328 13.2485 13.4746 13.2485 13.99 13.2485C14.2109 13.4693 14.4318 13.6165 14.5791 13.8373L16.9353 11.7028L19.1443 11.6292L19.9542 8.31714H5.96418Z" fill="#E20613"/>
<path fill-rule="evenodd" clip-rule="evenodd" d="M63.5444 31.1336H61.3354L67.226 0H69.5086L63.5444 31.1336Z" fill="#E20613"/>
<path fill-rule="evenodd" clip-rule="evenodd" d="M64.5015 36.1384H63.4707L67.2996 17.002H68.404L64.5015 36.1384Z" fill="white"/>
<path d="M84.0141 8.53784L83.4251 11.3347H79.6698L76.5037 25.6135H73.3375L76.43 11.3347H72.6748L73.2639 8.53784H84.0141Z" fill="white"/>
<path d="M81.8052 25.6135L85.5604 8.53784H94.6907L94.1017 11.3347H88.2111L87.3276 15.162H92.7027L92.1136 17.7381H86.8121L85.634 22.9638H91.5246L90.9355 25.6135H81.8052Z" fill="white"/>
<path d="M98.1511 16.8549L96.0158 8.53784H99.771L100.728 14.1316L104.263 8.53784H107.944L101.906 16.8549L104.336 25.6135H100.728L99.6237 19.2837L95.6476 25.6135H92.1133L98.1511 16.8549Z" fill="white"/>
<path d="M105.883 25.6135L109.638 8.53784H112.878L111.405 15.162H115.676L117.148 8.53784H120.388L116.633 25.6135H113.393L115.087 17.7381H110.816L109.123 25.6135H105.883Z" fill="white"/>
<path d="M129.96 25.6134L133.715 8.61133H130.255L122.744 20.9764C122.891 20.6084 123.112 20.0932 123.333 19.4308C123.554 18.7684 123.775 18.0324 123.922 17.2964C124.143 16.5603 124.29 15.7507 124.511 15.0147L125.91 8.61133H122.891L119.136 25.6134H122.597L130.034 13.2482C129.445 14.5731 128.856 16.5603 128.34 19.1364L126.941 25.5398H129.96V25.6134Z" fill="white"/>
<path d="M132.316 25.6135L136.072 8.53784H139.311L137.692 15.9716L143.214 8.53784H146.896L140.931 15.9716L143.288 25.6135H139.68L138.354 18.7685L136.661 20.4613L135.556 25.6135H132.316Z" fill="white"/>
<path d="M143.876 25.6134L151.976 8.61133H156.32V25.6134H152.86L153.007 21.1973H149.325L147.337 25.6134H143.876ZM150.282 18.6212H153.154L153.596 10.6722L150.282 18.6212Z" fill="white"/>
<path d="M164.346 22.9638C164.788 22.3014 165.23 21.639 165.525 21.0502C165.819 20.4613 166.114 19.8725 166.408 19.2101C166.703 18.5477 166.924 17.8117 167.144 16.9285C167.365 16.0452 167.66 15.0148 167.881 13.8372L169.059 8.53784H178.705L175.538 22.9638H176.569L175.244 28.9992H172.151L172.888 25.6135H165.819L165.083 28.9992H161.99L163.316 22.9638H164.346ZM174.949 11.1875H171.71L170.826 15.0148C170.384 16.8549 169.942 18.4005 169.501 19.5045C168.985 20.6822 168.396 21.7862 167.586 22.9638H172.372L174.949 11.1875Z" fill="white"/>
<path d="M183.27 8.53784H193.137L189.381 25.5399H186.141L189.308 11.1139H185.847L184.374 17.6645C183.933 19.5781 183.491 21.1238 182.975 22.375C182.46 23.5526 181.871 24.4359 181.208 25.0247C180.545 25.6135 179.736 25.9079 178.852 25.9079C178.042 25.9079 177.453 25.8343 176.938 25.6871L177.453 23.3318C177.674 23.4054 178.042 23.479 178.484 23.479C178.778 23.479 178.999 23.4054 179.22 23.2582C179.441 23.111 179.588 22.8166 179.809 22.375C180.03 21.9334 180.251 21.271 180.472 20.3877C180.693 19.5045 180.987 18.2533 181.355 16.7077L183.27 8.53784Z" fill="white"/>
<path d="M202.193 25.6134L205.948 8.61133H199.689C198.806 8.61133 197.996 8.83213 197.186 9.27374C196.45 9.71536 195.787 10.3042 195.271 11.0402C194.756 11.7762 194.388 12.6594 194.167 13.5427C194.02 14.2787 193.946 14.9411 194.02 15.5299C194.093 16.1187 194.314 16.7075 194.609 17.1491C194.903 17.6644 195.271 17.9588 195.787 18.2532L190.854 25.5398H194.388L198.806 18.6212H200.426L198.879 25.5398H202.193V25.6134ZM200.499 11.1138H202.119L201.015 16.1923H199.395C197.775 16.1923 197.186 15.3091 197.554 13.6163C197.922 11.9234 198.953 11.1138 200.499 11.1138Z" fill="white"/>
<path d="M215.373 17.8852L214.195 23.1109H216.036C217.288 23.1109 218.171 22.2277 218.539 20.4612C218.687 19.6516 218.687 18.9892 218.466 18.5476C218.245 18.106 217.803 17.8852 217.214 17.8852H215.373ZM216.699 25.6134H210.44L214.195 8.61133H223.252L222.736 11.0402H216.92L215.962 15.3827H218.687C219.349 15.3827 219.865 15.5299 220.38 15.7507C220.896 16.0451 221.264 16.3395 221.485 16.8547C221.779 17.2964 221.926 17.8116 222 18.4004C222.074 18.9892 222.074 19.578 221.926 20.1668C221.558 21.8597 220.896 23.1845 220.012 24.1413C219.055 25.0982 217.95 25.6134 216.699 25.6134Z" fill="white"/>
<path d="M233.56 25.6134L237.315 8.61133H233.855L226.344 20.9764C226.492 20.6084 226.712 20.0932 226.933 19.4308C227.154 18.7684 227.375 18.0324 227.522 17.2964C227.743 16.5603 227.891 15.7507 228.038 15.0147L229.437 8.61133H226.492L222.736 25.6134H226.197L233.634 13.2482C233.045 14.5731 232.456 16.5603 231.94 19.1364L230.541 25.5398H233.56V25.6134Z" fill="white"/>
<path d="M242.175 17.8117H241.512L242.028 15.3828H242.691C243.353 15.3828 243.869 15.2356 244.31 14.8676C244.752 14.4996 245.12 13.9844 245.268 13.2484C245.415 12.5859 245.415 11.9971 245.194 11.5555C245.047 11.1139 244.605 10.8931 243.942 10.8931C243.353 10.8931 242.764 11.1139 242.322 11.6291C241.881 12.1443 241.586 12.7331 241.365 13.5428H238.199C238.42 12.5859 238.788 11.6291 239.377 10.8931C239.966 10.0835 240.702 9.49465 241.512 9.05304C242.396 8.61143 243.353 8.39062 244.384 8.39062C245.194 8.39062 246.004 8.53783 246.74 8.83224C247.477 9.12664 247.992 9.64186 248.36 10.3043C248.728 10.9667 248.802 11.8499 248.507 12.9539C248.36 13.5428 248.139 14.058 247.845 14.5732C247.477 15.0884 247.108 15.53 246.593 15.898C246.078 16.266 245.636 16.4868 245.047 16.634C245.857 16.8548 246.519 17.3701 246.814 18.1061C247.182 18.8421 247.182 19.7989 246.961 21.0501C246.74 22.1542 246.299 23.111 245.709 23.847C245.12 24.583 244.384 25.1719 243.501 25.5399C242.617 25.9079 241.66 26.1287 240.555 26.1287C239.598 26.1287 238.714 25.9815 237.978 25.6135C237.242 25.3191 236.726 24.7302 236.358 23.9942C236.064 23.2582 235.99 22.3014 236.211 21.1237H239.377C239.009 22.6694 239.524 23.479 240.923 23.479C242.322 23.479 243.28 22.5222 243.648 20.6821C243.869 19.7253 243.795 19.0629 243.501 18.6213C243.427 18.0325 242.911 17.8117 242.175 17.8117Z" fill="white"/>
<path d="M248.139 25.6135L251.894 8.53784H255.134L253.662 15.162H257.932L259.405 8.53784H262.645L258.816 25.6135H255.65L257.343 17.7381H253.073L251.379 25.6135H248.139Z" fill="white"/>
<path d="M261.319 25.6135L265.075 8.53784H274.205L273.616 11.3347H267.725L266.842 15.162H272.217L271.628 17.7381H266.326L265.148 22.9638H271.039L270.45 25.6135H261.319Z" fill="white"/>
<path d="M281.863 14.1317L281.936 13.7637C282.157 12.7333 282.157 11.9236 282.01 11.5556C281.789 11.114 281.347 10.8932 280.684 10.8932C280.022 10.8932 279.433 11.114 279.065 11.5556C278.696 11.9972 278.328 12.7333 278.107 13.7637L276.635 20.4614C276.414 21.5655 276.34 22.3015 276.561 22.7431C276.782 23.1847 277.224 23.4055 277.886 23.4055C278.549 23.4055 279.065 23.1847 279.506 22.7431C279.948 22.3015 280.243 21.5655 280.464 20.4614L280.684 19.5782H283.924L283.777 20.3878C283.556 21.4919 283.188 22.4487 282.672 23.3319C282.157 24.1415 281.494 24.8776 280.611 25.3192C279.727 25.8344 278.623 26.0552 277.371 26.0552C275.383 26.0552 274.131 25.54 273.616 24.5096C273.1 23.4791 272.953 22.0807 273.395 20.3878L274.794 14.2053C275.236 12.218 275.972 10.746 277.076 9.78918C278.181 8.83235 279.58 8.31714 281.347 8.31714C282.452 8.31714 283.335 8.53794 283.998 8.90595C284.661 9.27396 285.102 9.86278 285.397 10.6724C285.618 11.4084 285.618 12.3652 285.397 13.3957L285.25 14.2053H281.863V14.1317Z" fill="white"/>
<path d="M283.556 25.6134L291.656 8.61133H296V25.6134H292.539L292.686 21.1973H289.005L287.017 25.6134H283.556ZM289.962 18.6212H292.834L293.276 10.6722L289.962 18.6212Z" fill="white"/>
</svg>
