<svg viewBox="0 0 289 82" fill="none" xmlns="http://www.w3.org/2000/svg">
<path fill-rule="evenodd" clip-rule="evenodd" d="M287.4 37.3C287.3 37.2 287.4 37.2 287.4 37.3H284.8L276.2 54.6H278.3L280.6 49.7H286L286.4 54.6H288.5H288.6L287.4 37.3ZM281.5 47.8L285.6 38.9L285.9 47.8H281.5Z" fill="white"/>
<path fill-rule="evenodd" clip-rule="evenodd" d="M277.4 40.8999C277.4 41.0999 277.4 41.3999 277.3 41.5999C277.3 41.7999 277.2 42.0999 277.2 42.3999H275.2C275.3 41.9999 275.3 41.4999 275.3 41.0999C275.3 40.4999 275.2 39.8999 274.8 39.3999C274.4 38.8999 273.6 38.6999 272.9 38.6999C271.2 38.6999 270.2 39.8999 269.5 41.2999C268.9 42.5999 268.5 44.1999 268.2 45.5999C268.1 46.3999 267.9 47.0999 267.7 47.8999C267.6 48.4999 267.5 49.1999 267.5 49.8999C267.5 50.5999 267.6 51.4999 267.9 52.1999C268.3 52.7999 269 53.0999 269.7 53.0999C270.8 53.0999 271.7 52.6999 272.3 51.6999C273 50.7999 273.4 49.2999 273.7 48.1999H275.6C275.2 49.7999 274.5 51.7999 273.4 53.0999C272.3 54.3999 270.9 54.8999 269.2 54.8999C267.9 54.8999 266.7 54.5999 265.9 53.4999C265.2 52.5999 265 51.2999 265 50.0999C265 49.3999 265.1 48.6999 265.1 47.9999C265.2 47.1999 265.4 46.3999 265.5 45.5999C265.8 44.2999 266.1 42.8999 266.7 41.5999C267.2 40.3999 267.9 39.0999 269 38.1999C270.1 37.1999 271.4 36.7999 272.9 36.7999C274 36.7999 275.1 37.0999 275.9 37.8999C277.2 38.7999 277.4 39.8999 277.4 40.8999Z" fill="white"/>
<path fill-rule="evenodd" clip-rule="evenodd" d="M258.4 39.1L257.2 44.7H263.5L263.2 46.4H256.9L255.6 52.6H262.3L262 54.3H253.3H253.2L256.8 37H265.5L265.2 38.7H265.1L258.4 39.1Z" fill="white"/>
<path fill-rule="evenodd" clip-rule="evenodd" d="M243.2 44.4H249.7L251.2 37.2H253.1L249.5 54.5H247.6H247.5L249.2 46.2H242.7L241 54.5H239.1H239L242.6 37.2H242.7H244.6L243.2 44.4Z" fill="white"/>
<path fill-rule="evenodd" clip-rule="evenodd" d="M235 45.2999C235.6 45.4999 236.2 45.7999 236.7 46.3999C237.2 46.9999 237.4 47.7999 237.4 48.5999C237.4 48.9999 237.3 49.3999 237.3 49.7999C237.1 50.9999 236.5 52.0999 235.6 53.0999C234.3 54.3999 232.7 54.9999 230.9 54.9999C229.7 54.9999 228.4 54.7999 227.5 53.8999C226.8 53.0999 226.6 51.8999 226.6 50.7999C226.6 50.5999 226.6 50.4999 226.6 50.2999C226.6 49.9999 226.7 49.4999 226.7 49.1999H226.8H228.7H228.8C228.7 49.6999 228.7 50.1999 228.7 50.5999C228.7 51.1999 228.8 51.9999 229.3 52.4999C229.8 52.9999 230.7 53.0999 231.4 53.0999C232.6 53.0999 233.6 52.6999 234.3 51.7999C234.8 51.1999 235.1 50.3999 235.3 49.5999C235.3 49.4999 235.4 49.2999 235.4 49.1999C235.5 49.0999 235.5 48.8999 235.5 48.7999C235.5 48.1999 235.3 47.5999 235 47.0999C234.6 46.5999 234 46.3999 233.3 46.3999H231.5H231.4L231.7 44.6999H231.8H233.1C235 44.6999 236.1 43.6999 236.5 41.8999C236.5 41.7999 236.5 41.5999 236.5 41.4999C236.5 41.3999 236.5 41.1999 236.5 41.0999C236.5 39.6999 235.7 39.0999 234.3 39.0999C233.5 39.0999 232.8 39.3999 232.1 39.8999C231.4 40.4999 230.9 41.2999 230.7 42.1999H230.6H228.7C229.2 40.7999 229.9 39.4999 231.1 38.5999C232.2 37.6999 233.5 37.2999 234.9 37.2999C235.9 37.2999 237 37.4999 237.8 38.1999C238.5 38.7999 238.8 39.6999 238.8 40.6999C238.8 40.8999 238.8 40.9999 238.8 41.1999C238.7 41.2999 238.7 41.3999 238.7 41.4999C238.5 42.4999 238.1 43.4999 237.3 44.1999C236.5 44.5999 235.8 44.9999 235 45.2999Z" fill="white"/>
<path fill-rule="evenodd" clip-rule="evenodd" d="M214 52.7C214.1 52.4 214.3 52.0999 214.4 51.7999C214.6 51.4999 214.8 51.2 214.9 50.9L223.2 37.2H223.3H226.1H226.2L222.6 54.5H222.5H220.6H220.5L223.4 40.7C223.5 40.1 223.6 39.5 223.7 38.9C223.6 39.1 223.5 39.3 223.4 39.6C223.2 40 222.9 40.5 222.7 40.9L214.4 54.5H211.6L215.2 37.2H215.3H217.2H217.3L214.3 51.2999L214 52.7Z" fill="white"/>
<path fill-rule="evenodd" clip-rule="evenodd" d="M211.5 37.2H202.8C202.7 37.2 202.7 37.2 202.7 37.2L199.2 54.5H203.8C205.2 54.5 206.7 54.2 207.9 53.4C209.1 52.5 209.8 51.1 210.1 49.6C210.2 49.1 210.2 48.6 210.2 48C210.2 46.8 209.8 45.8 208.8 45.2C207.9 44.6 206.5 44.5 205.4 44.5H203.2L204.3 39H210.9L211.5 37.2ZM204.5 46.4C205.2 46.4 206.5 46.4 207.2 46.7999C207.9 47.0999 208.1 47.8 208.1 48.6C208.1 48.8 208.1 48.9 208.1 49.1C208.1 49.3 208 49.5 208 49.6C207.8 50.5 207.4 51.5 206.6 52.1C205.8 52.6 204.7 52.7 203.8 52.7H201.7L203 46.4H204.5Z" fill="white"/>
<path fill-rule="evenodd" clip-rule="evenodd" d="M193.3 37.2H188.7C187.3 37.2 185.8 37.4999 184.6 38.2999C183.4 39.1999 182.7 40.6 182.4 42.1C182.3 42.6 182.2 43.1 182.2 43.6C182.2 44.4 182.4 45.1999 182.9 45.7999C183.3 46.2999 184 46.7 184.6 46.9L179.2 54.4H179.3H181.4H181.5L186.8 47.1H189.2L187.7 54.2999H187.8H189.7C189.8 54.2999 189.8 54.2999 189.8 54.2999L193.3 37.2C193.4 37.2 193.4 37.2 193.3 37.2ZM189.6 45.4H188C187.2 45.4 186.1 45.4 185.4 45C184.7 44.7 184.5 43.9999 184.5 43.2999C184.5 42.9999 184.5 42.6 184.6 42.2C184.8 41.3 185.1 40.2999 186 39.7999C186.8 39.2999 187.9 39.1 188.9 39.1H191L189.6 45.4Z" fill="white"/>
<path fill-rule="evenodd" clip-rule="evenodd" d="M178.4 39.1H172.7L171.3 45.9C171 47.2 170.7 48.6 170.3 49.9C169.9 51.1 169.5 52.4 168.7 53.4C168 54.3 167.1 54.9 165.9 54.9C165.5 54.9 165.1 54.9 164.8 54.8C164.8 54.8 164.8 54.8 164.8 54.7L165.1 53C165.1 53 165.1 53 165.2 53H165.3C165.5 53.1 165.7 53.1 166 53.1C167.9 53.1 169.3 46.2 169.6 44.9L171.2 37.4H171.3H181H181.1L177.5 54.7H175.2H175.1L178.4 39.1Z" fill="white"/>
<path fill-rule="evenodd" clip-rule="evenodd" d="M164.3 52.6999H163L166.2 37.2999H166.1H156.9C156.8 37.2999 156.8 37.2999 156.8 37.2999L155.9 41.6999C155.5 43.7999 155 46.0999 154.2 48.0999C153.6 49.6999 152.8 51.3999 151.7 52.7999H150.6C150.5 52.7999 150.5 52.7999 150.5 52.7999L149.3 58.4999H149.4H151.2L152 54.4999H161.8L161 58.4999H162.8C162.9 58.4999 162.9 58.4999 162.9 58.4999L164.1 52.7999V52.6999C164.4 52.6999 164.4 52.6999 164.3 52.6999ZM160.9 52.6999H154C155.8 49.9999 156.9 46.5999 157.6 43.4999L158.5 38.9999H163.7L160.9 52.6999Z" fill="white"/>
<path fill-rule="evenodd" clip-rule="evenodd" d="M238.9 13.2999C238.8 13.2999 238.9 13.2999 238.9 13.2999H236.3C236.2 13.2999 236.2 13.2999 236.2 13.2999L227.6 30.5999H227.7H229.8L232.1 25.6999H237.5L237.9 30.5999H240L238.9 13.2999ZM233.1 23.7999L237.2 14.8999L237.5 23.7999H233.1Z" fill="white"/>
<path fill-rule="evenodd" clip-rule="evenodd" d="M220.2 21.9L228.2 13.2H230.6L223.6 20.4L227.2 30.4H225C224.9 30.4 224.9 30.4 224.9 30.4L222.1 22L219.7 24.4L218.4 30.4H218.3H216.3L219.9 13.1H220H221.9H222L220.2 21.9Z" fill="white"/>
<path fill-rule="evenodd" clip-rule="evenodd" d="M204.3 28.7999C204.4 28.4999 204.6 28.1999 204.7 27.8999C204.8 27.5999 205 27.2999 205.2 26.9999L213.5 13.2999H213.6H216.4H216.5L212.9 30.5999H212.8H210.9L213.8 16.7999C213.9 16.1999 214 15.5999 214.2 14.9999C214.1 15.1999 214 15.3999 213.9 15.6999C213.7 16.0999 213.5 16.5999 213.2 16.9999L204.9 30.5999H204.8H202H201.9L205.5 13.2999H205.6H207.5H207.6L204.6 27.3999L204.3 28.7999Z" fill="white"/>
<path fill-rule="evenodd" clip-rule="evenodd" d="M191.9 20.4999H198.4L199.9 13.2999H200H201.9H202L198.4 30.5999H198.3H196.4H196.3L198 22.2999H191.5L189.8 30.5999H187.9L191.5 13.2999H191.6H193.5H193.6L191.9 20.4999Z" fill="white"/>
<path fill-rule="evenodd" clip-rule="evenodd" d="M180.2 21.6999L177.3 13.2999H177.4H179.5L181.7 19.8999L186.7 13.2999H186.8H188.9C189 13.2999 189 13.2999 189 13.2999L182.6 21.6999L185.4 30.5999H183.2C183.1 30.5999 183.1 30.5999 183.1 30.5999L181 23.4999L175.8 30.5999H175.7H173.6C173.5 30.5999 173.5 30.5999 173.5 30.5999L180.2 21.6999Z" fill="white"/>
<path fill-rule="evenodd" clip-rule="evenodd" d="M168.4 15.1L167.2 20.7H173.5H173.6L173.3 22.4H173.2H166.9L165.6 28.6H172.3H172.4L172.1 30.3H172H163.2H163.1L166.7 13H166.8H175.5H175.6L175.2 15.1H175.1H168.4Z" fill="white"/>
<path fill-rule="evenodd" clip-rule="evenodd" d="M160 15.1L156.7 30.6H156.6H154.7H154.6L157.8 15.2H153.4H153.3L153.7 13.5H153.8H164.7H164.8L164.5 15.2H164.4H160V15.1Z" fill="white"/>
<path fill-rule="evenodd" clip-rule="evenodd" d="M133.2 81.1999H130.7H130.6V81.0999L140.2 33.7999H140.3H142.8H142.9L133.2 81.1999Z" fill="white"/>
<path fill-rule="evenodd" clip-rule="evenodd" d="M131.2 66.6H125.9L138.8 0H144.1L131.2 66.6C131.3 66.6 131.3 66.6 131.2 66.6Z" fill="#D51317"/>
<path fill-rule="evenodd" clip-rule="evenodd" d="M40.8 16.7H12.2L0 62.2999C0 62.2999 -5.73695e-07 62.3 0.0999994 62.4C0.0999994 62.4 0.0999998 62.4 0.2 62.4L9.8 48.2H19.2L19 50.9H31.9L34.6 40.7H33.4C33.3 40.7 33.3 40.7 33.3 40.7L33.1 41.7999H27.8L27.7 41H26.9C26.5 39.8 26.2 38.5999 25.9 37.2999C25.8 36.5999 24.8 32.1 25.4 31.6L29.2 28.6C29.2 28.6 29.2 28.6 29.2 28.5L28.9 27.7C28.9 27.7 28.9 27.7 28.8 27.7C28.6 27.7 28.4 27.9 28.2 27.9C27.4 27.9 26.7 27.9 25.9 27.9C25.6 27.5 25.4 27.1 25.9 26.7C26.9 26.7 27.9 26.7 28.9 26.7C29.3 27.1 29.7 27.4 30.1 27.9C30.1 27.9 30.1 27.9 30.2 27.9L35 23.6L39.5 23.5L40.8 16.7C40.8 16.8 40.8 16.8 40.8 16.7ZM19.6 41.9H13.6L20.8 31L19.6 41.9Z" fill="#D51317"/>
<path fill-rule="evenodd" clip-rule="evenodd" d="M31.5 33.6H35.4C35.5 33.6 35.6 33.7 35.6 33.8V34.4C35.6 34.5 35.5 34.6 35.4 34.6H31.5C31.4 34.6 31.3 34.5 31.3 34.4V33.8C31.2 33.7 31.3 33.6 31.5 33.6Z" fill="#D51317"/>
<path fill-rule="evenodd" clip-rule="evenodd" d="M35 24.4C36.3 24.4 37.6 24.4 38.8 24.4C38.7 24.8 38.6 25.3 38.5 25.7H37.9C37.7 25.4 36.7 25.2 36.3 25.2C35.7 25.2 35.2 25.5 34.7 26C34.4 26.7 34.5 27.7 33.8 28.2C32.9 28.2 31.9 28.2 31 28.2C31 28.2 31 28.2 31 28.1C32.2 26.9 33.6 25.7 35 24.4C35 24.4 34.9 24.4 35 24.4Z" fill="#D51317"/>
<path fill-rule="evenodd" clip-rule="evenodd" d="M108.1 20.7H104H103.9L104.4 17H104.5H120.1H120.2L119.7 20.7H119.6H115.4L110.8 50.9H103.7L108.1 20.7Z" fill="white"/>
<path fill-rule="evenodd" clip-rule="evenodd" d="M97.0999 16.9C96.9999 16.8 97.0999 16.8 97.0999 16.9H85.7999L76.8999 50.9H83.7999L85.7999 41.9H88.9999L88.3999 50.9H88.4999H95.3999C95.4999 50.9 95.4999 50.9 95.4999 50.9L97.0999 16.9ZM89.2999 38H86.6999L90.4999 21.2H90.6999L89.2999 38Z" fill="white"/>
<path fill-rule="evenodd" clip-rule="evenodd" d="M71.2 20.7L66.6 50.9H59.5L64.7 16.9H78.2L77.7 20.6H71.2V20.7Z" fill="white"/>
<path fill-rule="evenodd" clip-rule="evenodd" d="M56.0001 16.9C56.0001 16.8 56.0001 16.8 56.0001 16.9H44.7001L35.8 50.9H42.7001L44.7001 41.9H47.9001L47.3 50.9H54.2001L56.0001 16.9ZM48.3 38H45.7001L49.5 21.2H49.7001L48.3 38Z" fill="white"/>
<path fill-rule="evenodd" clip-rule="evenodd" d="M133.2 81.2H130.7L140.3 33.9H142.8L133.2 81.2Z" fill="white"/>
</svg>
